<svg width="30" height="30" viewBox="0 0 30 30" fill="none" xmlns="http://www.w3.org/2000/svg">
<path d="M12.5 11.6663L19.1663 14.9937L12.5 18.3337V11.6663ZM30 6.25V23.75C30 27.2013 27.2025 30 23.75 30H6.25C2.79875 30 0 27.2013 0 23.75V6.25C0 2.79875 2.79875 0 6.25 0H23.75C27.2025 0 30 2.79875 30 6.25ZM25 15C24.975 9.84625 24.5962 7.875 21.3462 7.65375C18.3425 7.44875 11.6537 7.45 8.655 7.65375C5.4075 7.875 5.025 9.8375 5 15C5.025 20.1537 5.40375 22.125 8.65375 22.3463C11.6525 22.55 18.3412 22.5513 21.345 22.3463C24.5925 22.125 24.975 20.1625 25 15Z" fill="white"/>
</svg>
